<?xml version="1.0" encoding="utf-8"?>
<!-- Generator: Adobe Illustrator 27.1.1, SVG Export Plug-In . SVG Version: 6.00 Build 0)  -->
<svg version="1.1" id="Layer_1" xmlns="http://www.w3.org/2000/svg" xmlns:xlink="http://www.w3.org/1999/xlink" x="0px" y="0px"
	 viewBox="0 0 1366 768" style="enable-background:new 0 0 1366 768;" xml:space="preserve">
<style type="text/css">
	.st0{fill:#A0A0A0;}
</style>
<g>
	<path class="st0" d="M683.6,361.3c21.9-21.9,43.4-43.5,65-65.1c32.8-32.8,65.5-65.5,98.3-98.2c7.5-7.5,17.2-8,23.9-1.3
		c6.7,6.7,6.2,16.4-1.3,23.9C811.8,278.3,754,336,696.3,393.7c-8.4,8.4-17.2,8.4-25.7-0.1c-57.7-57.7-115.5-115.4-173.2-173.2
		c-9.9-9.9-6.6-24.7,6.2-28c6.4-1.6,11.7,0.6,16.3,5.2c25.8,25.8,51.6,51.6,77.4,77.4c27.5,27.4,54.9,54.9,82.4,82.4
		C680.8,358.6,682,359.7,683.6,361.3z"/>
	<path class="st0" d="M683.1,537.9c17.1-17.2,33.3-33.5,49.6-49.7c38.1-38.1,76.1-76.1,114.2-114.1c7.6-7.5,17.1-8.1,23.9-1.5
		c6.8,6.6,6.3,16.4-1.2,23.9C811.7,454.4,753.8,512.2,696,570c-8,8-17,8-25,0c-57.9-57.8-115.7-115.7-173.6-173.5
		c-7.5-7.5-8-17.2-1.3-23.9c6.8-6.7,16.3-6.2,23.9,1.4c53,53,106.1,106,159.1,159C680.4,534.3,681.5,535.9,683.1,537.9z"/>
</g>
</svg>
